<svg width="40" height="40" viewBox="0 0 40 40" fill="none" xmlns="http://www.w3.org/2000/svg">
<rect x="1" y="0.5" width="39" height="39" rx="1.5" stroke="white"/>
<mask id="path-2-inside-1_154_9445" fill="white">
<path fill-rule="evenodd" clip-rule="evenodd" d="M13.5 12C13.5 9.23858 15.7386 7 18.5 7H22.5C25.2614 7 27.5 9.23858 27.5 12C28.6046 12 29.5 12.8954 29.5 14C29.5 15.1046 28.6046 16 27.5 16V28C27.5 30.7614 25.2614 33 22.5 33H18.5C15.7386 33 13.5 30.7614 13.5 28L13.5 16C12.3954 16 11.5 15.1046 11.5 14C11.5 12.8954 12.3954 12 13.5 12Z"/>
</mask>
<path d="M13.5 12L13.5 13L14.5 13V12H13.5ZM27.5 12H26.5V13H27.5V12ZM27.5 16V15H26.5V16H27.5ZM13.5 28H14.5H13.5ZM13.5 16H14.5L14.5 15H13.5V16ZM18.5 6C15.1863 6 12.5 8.68629 12.5 12H14.5C14.5 9.79086 16.2909 8 18.5 8V6ZM22.5 6H18.5V8H22.5V6ZM28.5 12C28.5 8.68629 25.8137 6 22.5 6V8C24.7091 8 26.5 9.79086 26.5 12H28.5ZM27.5 13C28.0523 13 28.5 13.4477 28.5 14H30.5C30.5 12.3431 29.1569 11 27.5 11V13ZM28.5 14C28.5 14.5523 28.0523 15 27.5 15V17C29.1569 17 30.5 15.6569 30.5 14H28.5ZM28.5 28V16H26.5V28H28.5ZM22.5 34C25.8137 34 28.5 31.3137 28.5 28H26.5C26.5 30.2091 24.7091 32 22.5 32V34ZM18.5 34H22.5V32H18.5V34ZM12.5 28C12.5 31.3137 15.1863 34 18.5 34V32C16.2909 32 14.5 30.2091 14.5 28H12.5ZM12.5 16L12.5 28H14.5V16H12.5ZM10.5 14C10.5 15.6569 11.8431 17 13.5 17V15C12.9477 15 12.5 14.5523 12.5 14H10.5ZM13.5 11C11.8431 11 10.5 12.3431 10.5 14H12.5C12.5 13.4477 12.9477 13 13.5 13L13.5 11Z" fill="white" mask="url(#path-2-inside-1_154_9445)"/>
<rect x="16.9" y="16.4" width="7.2" height="13.2" rx="2.6" stroke="white" stroke-width="0.8"/>
<rect x="16.9" y="16.4" width="7.2" height="5.2" rx="2.6" stroke="white" stroke-width="0.8"/>
<rect x="16.9" y="25.4" width="7.2" height="4.2" rx="2.1" stroke="white" stroke-width="0.8"/>
<path d="M30.5 23C31.2956 23 32.0587 22.6839 32.6213 22.1213C33.1839 21.5587 33.5 20.7956 33.5 20C33.5 19.2044 33.1839 18.4413 32.6213 17.8787C32.0587 17.3161 31.2957 17 30.5 17" stroke="white" stroke-width="0.8"/>
<path d="M10.5 23C9.70435 23 8.94129 22.6839 8.37868 22.1213C7.81607 21.5587 7.5 20.7956 7.5 20C7.5 19.2044 7.81607 18.4413 8.37868 17.8787C8.94129 17.3161 9.70435 17 10.5 17" stroke="white" stroke-width="0.8"/>
<path d="M30.5 26C32.0913 26 33.6174 25.3679 34.7426 24.2426C35.8679 23.1174 36.5 21.5913 36.5 20C36.5 18.4087 35.8679 16.8826 34.7426 15.7574C33.6174 14.6321 32.0913 14 30.5 14" stroke="white" stroke-width="0.8"/>
<path d="M10.5 26C8.9087 26 7.38258 25.3679 6.25736 24.2426C5.13214 23.1174 4.5 21.5913 4.5 20C4.5 18.4087 5.13214 16.8826 6.25736 15.7574C7.38258 14.6321 8.9087 14 10.5 14" stroke="white" stroke-width="0.8"/>
</svg>
