<svg width="61" height="28" viewBox="0 0 61 28" fill="none" xmlns="http://www.w3.org/2000/svg">
<path d="M4.38894 5.19289C4.78895 2.49656 7.10356 0.5 9.8294 0.5H51.1706C53.8964 0.5 56.2111 2.49656 56.6111 5.1929L58.9847 21.1929C59.4776 24.5155 56.9032 27.5 53.5442 27.5H7.45578C4.09683 27.5 1.52241 24.5155 2.01532 21.1929L4.38894 5.19289Z" stroke="white"/>
<circle cx="44.5" cy="12" r="7.5" stroke="white"/>
<circle cx="15.5" cy="12" r="7.5" stroke="white"/>
<circle cx="8.5" cy="22" r="2.5" stroke="white"/>
<circle cx="52.5" cy="22" r="2.5" stroke="white"/>
<path d="M44.5 12L48.5 9" stroke="white" stroke-linecap="round"/>
<path d="M15.5 12L11.5 9" stroke="white" stroke-linecap="round"/>
<path d="M25.5 21H34.5" stroke="white" stroke-linecap="round"/>
<path d="M25.5 6H34.5" stroke="white" stroke-linecap="round"/>
<path d="M17.5 24H42.5" stroke="white" stroke-linecap="round"/>
</svg>
